<svg width="302" height="56" viewBox="0 0 302 56" fill="none" xmlns="http://www.w3.org/2000/svg">
<g clip-path="url(#clip0_265_7240)">
<path d="M62.8631 23.7905C58.6268 23.7858 54.3905 23.781 50.1558 23.7762C50.1558 21.1362 50.1558 18.4962 50.1604 15.8561C50.1604 15.5739 50.0813 15.2694 50.2954 15.0205C54.4867 15.0237 58.6795 15.0268 62.8708 15.03C62.8801 15.0649 62.9019 15.0871 62.936 15.0966C62.9484 17.9539 62.9608 20.8096 62.9732 23.6668C62.936 23.7081 62.9003 23.7493 62.8631 23.7921V23.7905Z" fill="#002959"/>
<path d="M62.936 15.0966C62.9019 15.0871 62.8802 15.0649 62.8708 15.03C62.8755 12.1473 62.8802 9.26312 62.8848 6.38048C67.1645 6.37413 71.4443 6.36779 75.724 6.35986C75.7566 9.26946 75.8248 12.1806 75.6883 15.0886L75.6309 15.0997C71.3993 15.0982 67.1676 15.0966 62.936 15.095V15.0966Z" fill="#BC0228"/>
<path d="M185.25 34.3823C186.071 32.3924 186.818 30.5801 187.565 28.7661C187.645 28.5711 187.721 28.3761 187.802 28.1826C188.253 27.0885 188.567 26.9332 189.719 27.1123C190.031 27.1615 190.081 27.3676 190.166 27.5753C191.039 29.7159 191.899 31.8628 192.783 33.9986C192.96 34.4267 192.888 34.579 192.432 34.5377C192.227 34.5187 192.013 34.506 191.813 34.5409C191.197 34.6471 190.816 34.4156 190.703 33.7798C190.594 33.1741 190.254 32.9442 189.663 33.0346C189.435 33.0695 189.195 33.0695 188.967 33.0346C188.104 32.9077 187.444 33.0774 187.298 34.1096C187.247 34.4791 186.989 34.5393 186.671 34.5362C185.663 34.5266 184.655 34.5203 183.648 34.5393C183.311 34.5457 183.139 34.3966 182.992 34.108C182.624 33.3834 182.225 32.6731 181.844 31.9548C181.729 31.7391 181.617 31.5393 181.32 31.5948C180.95 31.663 181.095 31.958 181.088 32.1609C181.07 32.7682 181.062 33.3771 181.088 33.9828C181.105 34.3855 180.983 34.5758 180.566 34.5377C180.31 34.514 180.048 34.5203 179.79 34.5377C179.457 34.5584 179.34 34.4204 179.342 34.0779C179.353 31.912 179.353 29.746 179.342 27.5801C179.34 27.2423 179.439 27.1092 179.781 27.1187C180.814 27.1456 181.852 27.0933 182.88 27.1758C183.958 27.263 184.636 27.8798 184.853 28.7915C185.087 29.7777 184.766 30.5864 183.811 31.1842C183.485 31.3887 183.525 31.5283 183.687 31.7899C184.181 32.5922 184.661 33.404 185.249 34.3839L185.25 34.3823ZM181.062 29.1911C181.113 29.8237 180.888 30.3565 181.664 30.3026C182.607 30.2376 183.206 29.93 183.133 29.3782C183.023 28.5441 182.339 28.6535 181.76 28.5695C181.023 28.4617 181.025 28.9025 181.064 29.1926L181.062 29.1911ZM189.919 31.5584C189.645 30.7862 189.386 30.0552 189.079 29.1879C188.916 29.6334 188.815 29.9014 188.717 30.1694C188.363 31.1398 188.764 31.6022 189.919 31.5568V31.5584Z" fill="white"/>
<path d="M140.744 27.9036C140.744 18.9243 140.744 9.94498 140.744 0.967255C140.744 0.756369 140.75 0.543897 140.744 0.333011C140.734 -0.0396073 141 0.00478979 141.228 3.29623e-05C141.445 -0.00313826 141.651 0.015889 141.64 0.326669C141.634 0.510599 141.64 0.696116 141.64 0.881632C141.64 18.9179 141.64 36.9558 141.64 54.9922C141.64 55.1507 141.628 55.3109 141.642 55.4678C141.679 55.8579 141.442 55.8849 141.155 55.8849C140.872 55.8849 140.72 55.7945 140.737 55.4742C140.756 55.1586 140.74 54.8399 140.74 54.5244C140.74 45.6513 140.74 36.7783 140.74 27.9052L140.744 27.9036Z" fill="white"/>
<path d="M223.495 46.9864C222.981 46.9864 222.469 46.9642 221.959 46.9927C221.565 47.0149 221.453 46.7374 221.407 46.4647C221.264 45.6449 220.791 45.3944 220.037 45.5308C219.887 45.5577 219.725 45.553 219.573 45.5308C218.723 45.4071 218.053 45.553 217.917 46.5979C217.876 46.9039 217.656 46.9943 217.352 46.9927C215.519 46.98 213.683 46.9784 211.848 46.9927C211.476 46.9959 211.355 46.8579 211.357 46.4853C211.368 44.3733 211.372 42.2597 211.354 40.1476C211.349 39.6862 211.52 39.5277 211.945 39.5705C212.149 39.5911 212.36 39.5958 212.564 39.5705C213.044 39.5071 213.179 39.7068 213.17 40.1936C213.141 41.7253 213.178 43.257 213.148 44.7871C213.139 45.2755 213.272 45.4531 213.753 45.4055C214.163 45.3659 214.585 45.4404 214.991 45.3881C215.723 45.2945 216.144 45.4816 216.066 46.3696C216.744 44.7332 217.422 43.0969 218.098 41.4605C218.258 41.072 218.458 40.6947 218.564 40.2919C218.72 39.7005 219.063 39.5752 219.634 39.5483C220.372 39.5134 220.706 39.7687 220.969 40.479C221.681 42.3992 222.496 44.2813 223.265 46.1809C223.361 46.4187 223.521 46.6407 223.492 46.9864H223.495ZM219.699 41.6667C219.479 42.2739 219.328 42.6862 219.179 43.1C218.939 43.7639 219.158 44.0911 219.835 44.0815C219.887 44.0815 219.939 44.0768 219.989 44.0815C220.42 44.1243 220.546 43.9705 220.372 43.5393C220.149 42.9843 219.966 42.4135 219.699 41.6667Z" fill="white"/>
<path d="M115.422 33.8226C114.896 35.3908 114.356 36.9526 113.854 38.5287C113.705 38.9964 113.5 39.193 112.987 39.193C112.467 39.193 112.289 38.9869 112.144 38.5176C111.657 36.924 111.121 35.3464 110.483 33.7909C110.483 35.367 110.444 36.9446 110.5 38.5192C110.526 39.2374 110.149 39.1994 109.692 39.1724C109.265 39.1486 108.761 39.3627 108.781 38.535C108.831 36.4246 108.808 34.311 108.789 32.1989C108.784 31.7439 108.873 31.5552 109.377 31.5456C111.316 31.5092 111.318 31.4886 111.975 33.3723C112.312 34.3363 112.644 35.302 113.027 36.4103C113.545 34.9341 114.041 33.6149 114.465 32.2703C114.634 31.7312 114.86 31.5345 115.431 31.5441C117.242 31.5774 117.243 31.5504 117.243 33.3992C117.243 35.1149 117.209 36.8321 117.259 38.5477C117.28 39.304 116.835 39.1724 116.412 39.1708C115.996 39.1677 115.534 39.3246 115.558 38.5588C115.61 36.9859 115.574 35.4098 115.574 33.8353C115.523 33.8321 115.472 33.8273 115.422 33.8242V33.8226Z" fill="white"/>
<path d="M263.221 44.2955C263.717 42.7939 264.151 41.5318 264.548 40.2554C264.7 39.7654 264.913 39.5482 265.47 39.5577C267.319 39.5862 267.319 39.5577 267.319 41.4557C267.319 43.0936 267.282 44.7315 267.334 46.3679C267.362 47.213 266.824 46.9657 266.415 46.9799C266.008 46.9926 265.535 47.1544 265.569 46.379C265.627 45.036 265.585 43.6882 265.478 42.3008C265.223 42.9905 264.967 43.6803 264.716 44.3716C264.491 44.9884 264.254 45.6036 264.055 46.2284C263.902 46.7104 263.74 47.0085 263.117 47.0196C262.44 47.0323 262.371 46.6137 262.217 46.176C261.778 44.9234 261.341 43.6692 260.832 42.4324C260.63 43.6914 260.728 44.9424 260.781 46.1824C260.815 46.991 260.449 46.9768 259.87 47.0053C259.234 47.0354 259.037 46.8642 259.054 46.1871C259.102 44.2067 259.087 42.2247 259.06 40.2443C259.054 39.7464 259.163 39.5625 259.692 39.5593C261.564 39.5482 261.562 39.5276 262.184 41.332C262.501 42.2517 262.825 43.1681 263.219 44.2939L263.221 44.2955Z" fill="white"/>
<path d="M94.222 34.1158C94.222 35.5904 94.1832 37.0666 94.2375 38.5397C94.2685 39.3721 93.7458 39.1486 93.3239 39.1676C92.8833 39.1882 92.4785 39.2611 92.4955 38.527C92.5421 36.4165 92.5234 34.3061 92.5033 32.1941C92.4986 31.7358 92.6041 31.5931 93.0896 31.5329C94.329 31.3791 95.1465 31.7311 95.7096 32.9678C96.2665 34.1919 97.0715 35.2971 97.9169 36.4181C97.9169 35.0371 97.9635 33.6544 97.8983 32.2765C97.8642 31.563 98.1868 31.5107 98.7127 31.5503C99.1656 31.5836 99.6729 31.3648 99.648 32.2321C99.586 34.314 99.6077 36.4007 99.6403 38.4858C99.6496 39.055 99.4588 39.1311 98.9454 39.193C97.8223 39.3261 97.1646 38.9123 96.648 37.8801C95.9841 36.5545 95.1403 35.3225 94.374 34.0508C94.3244 34.0714 94.2732 34.092 94.2235 34.1111L94.222 34.1158Z" fill="white"/>
<path d="M234.589 43.9817C234.589 42.7179 234.629 41.4526 234.575 40.1905C234.542 39.4215 235.015 39.561 235.43 39.5816C235.836 39.6022 236.393 39.339 236.377 40.1841C236.34 42.2676 236.359 44.3543 236.371 46.4378C236.374 46.8358 236.256 46.9595 235.85 47.0023C234.811 47.1117 234.075 46.8944 233.574 45.802C233.036 44.6286 232.257 43.5694 231.466 42.266C231.466 43.774 231.414 45.0551 231.485 46.3268C231.531 47.1418 231.047 46.9801 230.608 46.9832C230.163 46.9864 229.71 47.1307 229.737 46.3205C229.8 44.2909 229.775 42.2565 229.744 40.2254C229.737 39.6958 229.904 39.5991 230.393 39.5515C231.375 39.4563 232.006 39.7354 232.471 40.6995C233.035 41.8649 233.79 42.932 234.463 44.0435C234.505 44.0229 234.547 44.0007 234.589 43.9801V43.9817Z" fill="white"/>
<path d="M195.262 29.8015C195.262 31.2698 195.217 32.5636 195.279 33.8511C195.316 34.6344 194.869 34.5377 194.398 34.5361C193.932 34.5345 193.49 34.6439 193.51 33.8575C193.561 31.8263 193.537 29.7936 193.52 27.7624C193.515 27.3121 193.613 27.1504 194.104 27.098C195.144 26.9854 195.814 27.2851 196.304 28.2983C196.867 29.4638 197.622 30.5325 198.401 31.82C198.401 30.3295 198.449 29.0499 198.386 27.7751C198.341 26.884 198.913 27.1519 199.347 27.1218C199.794 27.0901 200.174 27.0409 200.156 27.7672C200.103 29.8237 200.128 31.8834 200.145 33.9415C200.148 34.3696 200.042 34.5012 199.596 34.5536C198.561 34.6725 197.88 34.3776 197.385 33.3612C196.805 32.1688 196.034 31.0747 195.265 29.8015H195.262Z" fill="white"/>
<path d="M257.548 17.283C257.548 18.8004 257.506 20.1133 257.563 21.4199C257.599 22.2491 257.078 22.0462 256.653 22.0494C256.25 22.0525 255.781 22.227 255.798 21.4516C255.845 19.3681 255.826 17.2814 255.804 15.1964C255.8 14.7524 255.918 14.5558 256.364 14.624C256.465 14.6398 256.574 14.643 256.673 14.624C257.553 14.4543 258.075 14.8158 258.494 15.6356C259.113 16.8438 259.878 17.9743 260.653 19.2603C260.824 18.5246 260.737 17.9125 260.742 17.3116C260.745 16.7582 260.688 16.2064 260.689 15.653C260.692 14.4733 260.551 14.6794 261.654 14.6129C262.282 14.5748 262.493 14.7413 262.478 15.4215C262.431 17.4257 262.447 19.4331 262.471 21.4389C262.478 21.9273 262.318 22.0256 261.859 22.0747C260.857 22.181 260.19 21.9193 259.707 20.9204C259.127 19.7201 258.353 18.6181 257.548 17.283Z" fill="white"/>
<path d="M238.727 31.8533C238.727 30.3581 238.78 29.0769 238.709 27.8037C238.665 27.0188 239.095 27.1029 239.57 27.1203C240.012 27.1362 240.48 26.9713 240.457 27.7815C240.4 29.8127 240.42 31.847 240.451 33.8782C240.459 34.4157 240.279 34.5013 239.795 34.5536C238.805 34.6615 238.183 34.3539 237.714 33.4025C237.128 32.2101 236.362 31.1081 235.544 29.754C235.52 31.1589 235.502 32.3195 235.582 33.4865C235.645 34.422 234.832 34.9231 233.996 34.5077C233.774 34.3983 233.815 34.2127 233.815 34.0383C233.812 31.9009 233.819 29.7619 233.807 27.6245C233.805 27.2535 233.919 27.0759 234.293 27.1219C234.317 27.1251 234.345 27.1251 234.37 27.1219C235.408 26.9649 236.135 27.2456 236.633 28.3254C237.173 29.4987 237.946 30.5611 238.727 31.8549V31.8533Z" fill="white"/>
<path d="M198.117 43.3188C198.102 45.591 196.475 47.2051 194.194 47.2115C191.841 47.2178 190.214 45.5736 190.228 43.2015C190.242 40.9388 191.872 39.3643 194.194 39.3738C196.548 39.3833 198.134 40.98 198.119 43.3172L198.117 43.3188ZM194.139 41.0466C192.955 41.0657 192.142 41.9901 192.161 43.2982C192.179 44.6095 193.012 45.5339 194.174 45.5307C195.339 45.5276 196.267 44.4827 196.226 43.2221C196.186 41.9409 195.31 41.0276 194.139 41.0466Z" fill="white"/>
<path d="M226.461 19.0811C226.461 17.8206 226.502 16.5568 226.44 15.2994C226.414 14.7778 226.476 14.551 227.021 14.6208C227.25 14.6509 227.486 14.6382 227.717 14.624C228.027 14.6049 228.189 14.6922 228.187 15.0568C228.176 17.2482 228.184 19.4411 228.176 21.6324C228.176 21.7529 228.144 21.913 228.065 21.986C227.753 22.2761 226.121 21.978 225.888 21.5959C225.179 20.4305 224.483 19.2587 223.771 18.0965C223.642 17.8856 223.568 17.6192 223.268 17.4701C223.268 18.8195 223.233 20.1308 223.282 21.4389C223.307 22.1128 222.939 22.1049 222.51 22.0462C222.125 21.9939 221.534 22.3443 221.548 21.4738C221.581 19.3618 221.565 17.2482 221.554 15.1361C221.553 14.7778 221.646 14.6541 222.023 14.6113C223.088 14.4892 223.853 14.7175 224.365 15.837C224.894 16.996 225.657 18.0425 226.319 19.1382C226.368 19.1192 226.414 19.1017 226.462 19.0827L226.461 19.0811Z" fill="white"/>
<path d="M250.785 14.4402C253.174 14.4434 254.75 16.002 254.731 18.3408C254.712 20.6447 253.065 22.2493 250.735 22.235C248.428 22.2208 246.809 20.5702 246.823 18.252C246.838 15.9687 248.432 14.437 250.785 14.4402ZM248.771 18.2916C248.771 19.6331 249.553 20.5305 250.741 20.5495C251.933 20.5702 252.834 19.5998 252.838 18.2932C252.843 17.0675 251.919 16.0639 250.782 16.0591C249.617 16.0543 248.773 16.9914 248.771 18.2916Z" fill="white"/>
<path d="M251.188 43.2745C251.188 45.5911 249.544 47.2306 247.242 47.2116C244.92 47.1925 243.302 45.5594 243.314 43.2444C243.327 40.9484 244.906 39.3898 247.234 39.3739C249.603 39.358 251.19 40.923 251.188 43.2729V43.2745ZM245.245 43.2158C245.235 44.5874 246.054 45.5324 247.251 45.5308C248.401 45.5308 249.285 44.5684 249.297 43.3062C249.311 42.0187 248.473 41.0753 247.302 41.0531C246.1 41.0309 245.256 41.9188 245.245 43.2158Z" fill="white"/>
<path d="M181.056 14.4402C183.401 14.4402 184.99 15.9687 185.021 18.2599C185.052 20.5797 183.37 22.2493 181.015 22.235C178.709 22.2208 177.057 20.548 177.091 18.2552C177.124 15.9655 178.71 14.4402 181.057 14.4402H181.056ZM179.019 18.2821C179.014 19.5791 179.849 20.5305 181.006 20.5511C182.21 20.5717 183.089 19.6204 183.089 18.2996C183.089 17.0247 182.222 16.0718 181.06 16.067C179.896 16.0623 179.024 17.0089 179.019 18.2821Z" fill="white"/>
<path d="M289.93 39.3754C292.271 39.3627 293.909 40.9721 293.908 43.2791C293.908 45.5624 292.232 47.2178 289.93 47.2114C287.639 47.2067 286.043 45.6116 286.034 43.3172C286.025 40.9308 287.551 39.3865 289.929 39.3738L289.93 39.3754ZM291.976 43.2601C291.972 41.9662 291.128 41.0498 289.944 41.0545C288.753 41.0593 287.925 41.9662 287.923 43.2649C287.923 44.5968 288.793 45.5545 289.986 45.5307C291.137 45.5085 291.98 44.546 291.975 43.2585L291.976 43.2601Z" fill="white"/>
<path d="M296.74 42.5862C296.74 43.8435 296.698 45.1041 296.756 46.3583C296.795 47.1939 296.259 46.9656 295.841 46.9846C295.411 47.0037 294.994 47.1036 295.012 46.3567C295.063 44.3018 295.045 42.2437 295.02 40.1871C295.014 39.6908 295.189 39.6052 295.639 39.5576C296.615 39.453 297.257 39.7305 297.724 40.6898C298.295 41.86 299.047 42.9382 299.866 44.0402C299.866 43.1443 299.866 42.2468 299.866 41.351C299.866 41.0878 299.897 40.8182 299.858 40.5613C299.742 39.7907 299.981 39.5022 300.8 39.5465C301.434 39.5814 301.628 39.7289 301.614 40.3885C301.572 42.3388 301.578 44.2923 301.611 46.2426C301.62 46.8102 301.493 46.9704 300.9 47.0179C299.931 47.0972 299.343 46.8007 298.889 45.8922C298.307 44.7299 297.564 43.6533 296.889 42.5402C296.839 42.556 296.79 42.5719 296.74 42.5862Z" fill="white"/>
<path d="M32.3265 35.1545C33.3937 35.6651 33.7877 36.2787 33.6993 37.238C33.6171 38.118 32.9764 38.7998 31.979 39.0155C30.7303 39.285 29.4614 39.1344 28.2019 39.1693C27.8699 39.1788 27.8327 38.9758 27.8327 38.7094C27.8358 36.4705 27.842 34.2317 27.828 31.9928C27.8249 31.552 28.0778 31.5552 28.3787 31.5567C29.3327 31.5631 30.2867 31.5409 31.2391 31.5694C32.3389 31.6011 33.0136 32.0404 33.2696 32.83C33.5535 33.7068 33.2929 34.3712 32.3249 35.1545H32.3265ZM30.434 37.6994C30.7644 37.6629 31.1026 37.6629 31.4221 37.5821C31.7339 37.5028 31.9588 37.2792 32.0069 36.9256C32.0411 36.6735 31.9619 36.469 31.7603 36.3056C31.495 36.0916 29.9454 35.8839 29.6693 36.0472C29.6119 36.0805 29.5623 36.1487 29.5343 36.2137C29.1915 37.0017 29.6072 37.6772 30.434 37.701V37.6994ZM30.3828 32.9854C30.0106 33.0425 29.3994 32.7602 29.5142 33.6069C29.5731 34.043 29.2815 34.6804 30.1548 34.5773C30.7567 34.506 31.5493 34.6741 31.63 33.8178C31.7044 33.0139 30.9878 33.0139 30.3828 32.9838V32.9854Z" fill="white"/>
<path d="M157.078 30.7734C157.078 29.7459 157.074 28.7184 157.081 27.6894C157.081 27.4389 157.011 27.1154 157.419 27.1249C158.602 27.1535 159.797 26.9933 160.968 27.2327C162.893 27.6275 163.838 28.812 163.839 30.7496C163.841 32.6698 162.808 33.989 160.951 34.387C159.805 34.6328 158.638 34.5043 157.481 34.5297C157.043 34.5392 157.076 34.2284 157.076 33.9335C157.076 32.8791 157.076 31.8247 157.076 30.7718L157.078 30.7734ZM158.854 30.7813C158.854 31.3077 158.88 31.8358 158.846 32.359C158.815 32.8283 159.012 32.9679 159.431 32.9203C159.685 32.8918 159.946 32.9029 160.2 32.8696C161.728 32.6698 162.516 31.035 161.745 29.6666C161.322 28.9151 160.033 28.3474 159.158 28.7042C158.494 28.9753 158.979 29.7158 158.86 30.2295C158.82 30.4039 158.854 30.5958 158.854 30.7797V30.7813Z" fill="white"/>
<path d="M61.3368 35.3385C61.3368 34.2555 61.3368 33.1741 61.3368 32.0912C61.3368 31.8169 61.3182 31.5489 61.7122 31.56C62.8725 31.5933 64.0467 31.4331 65.1931 31.6535C67.1848 32.0357 68.2334 33.347 68.2318 35.3385C68.2287 37.1968 67.0746 38.6191 65.2163 39.0171C64.0684 39.2629 62.9004 39.1455 61.7401 39.1741C61.2903 39.1852 61.3384 38.8776 61.3384 38.5874C61.3384 37.5044 61.3384 36.423 61.3384 35.3401L61.3368 35.3385ZM63.0214 35.3654C63.0214 35.5763 63.0214 35.7888 63.0214 35.9997C63.0214 37.191 63.5984 37.6773 64.7525 37.4585C65.7298 37.2729 66.3627 36.607 66.4464 35.6731C66.5581 34.4426 66.1253 33.7037 65.0891 33.3073C64.616 33.1266 64.1258 33.1472 63.6388 33.1028C63.1889 33.0616 62.9702 33.1836 63.0121 33.7037C63.0555 34.2555 63.0214 34.8121 63.0214 35.367V35.3654Z" fill="white"/>
<path d="M211.144 18.3186C211.144 17.2626 211.144 16.205 211.144 15.149C211.144 14.889 211.085 14.602 211.507 14.6226C212.717 14.6828 213.933 14.51 215.138 14.7716C216.84 15.1411 217.802 16.2621 217.934 18.0776C218.056 19.7552 217.119 21.1981 215.553 21.7499C214.22 22.2208 212.84 22.0068 211.478 22.048C211.056 22.0607 211.147 21.7309 211.146 21.4867C211.14 20.4307 211.143 19.3731 211.143 18.317L211.144 18.3186ZM212.878 18.2917C212.878 18.8451 212.874 19.3984 212.882 19.9518C212.885 20.15 212.833 20.3609 213.116 20.4592C214.141 20.816 215.677 20.0422 215.967 19.002C216.469 17.1992 215.031 15.7563 213.181 16.186C212.897 16.251 212.878 16.4111 212.88 16.6331C212.88 17.1865 212.88 17.7399 212.88 18.2933L212.878 18.2917Z" fill="white"/>
<path d="M196.099 18.298C196.099 17.2419 196.102 16.1875 196.099 15.1315C196.099 14.8556 196.079 14.6019 196.481 14.6225C197.689 14.6812 198.907 14.5099 200.109 14.7763C201.764 15.1426 202.745 16.2589 202.861 17.9412C202.987 19.7424 202.126 21.1647 200.557 21.7324C199.205 22.2208 197.798 22.0146 196.411 22.0495C196.043 22.059 196.104 21.772 196.102 21.5437C196.099 20.4623 196.101 19.3793 196.101 18.298H196.099ZM197.833 18.3233C197.833 18.8497 197.86 19.3778 197.826 19.901C197.796 20.3672 197.984 20.5178 198.409 20.4655C198.663 20.4338 198.924 20.4433 199.175 20.3973C200.427 20.1706 201.1 19.3651 201.032 18.1949C200.961 16.9978 200.232 16.3001 198.953 16.2065C198.208 16.1516 197.835 16.5152 197.835 17.2974C197.835 17.6399 197.835 17.9808 197.835 18.3233H197.833Z" fill="white"/>
<path d="M6.12382 39.1124C4.83426 39.2307 3.91906 38.7572 3.37822 37.6917C3.18897 37.3174 2.98887 36.948 2.81203 36.569C2.66467 36.2519 2.46767 36.0664 2.09384 36.1203C1.63779 36.1869 1.79446 36.5421 1.78515 36.7974C1.76498 37.3777 1.75568 37.9596 1.78515 38.5384C1.80997 38.9982 1.69363 39.1885 1.1926 39.1853C0.108316 39.179 0.108316 39.2091 0.108316 38.096C0.108316 36.171 0.136237 34.2445 0.0928041 32.3196C0.0788435 31.6711 0.291356 31.5141 0.882358 31.5458C1.73086 31.5934 2.58556 31.5427 3.43716 31.5617C4.64554 31.5886 5.49714 32.1531 5.74843 33.0617C6.07573 34.2429 5.72982 35.142 4.58504 35.8365C4.15691 36.0965 4.46405 36.2757 4.56488 36.4533C5.0535 37.3174 5.56539 38.1657 6.12227 39.1108L6.12382 39.1124ZM1.79446 33.8339C1.69363 34.4047 1.7898 34.7392 2.48473 34.6996C3.6202 34.6362 4.06384 34.4475 4.07625 33.8592C4.09021 33.2329 3.65433 33.0315 2.53282 32.9729C1.83479 32.9364 1.6595 33.2186 1.79446 33.8339Z" fill="white"/>
<path d="M186.082 18.3105C186.082 17.2798 186.096 16.2492 186.075 15.2201C186.066 14.8015 186.15 14.5938 186.623 14.6144C187.526 14.6541 188.435 14.5891 189.336 14.6477C190.934 14.7524 191.712 15.6229 191.63 17.1102C191.59 17.8396 191.235 18.3707 190.616 18.6799C190.247 18.8639 190.261 19.0208 190.453 19.3285C190.912 20.061 191.334 20.8189 191.787 21.5562C192.018 21.9336 191.923 22.0176 191.509 22.0652C190.464 22.1857 189.657 21.9859 189.296 20.8189C189.15 20.3496 188.849 19.9294 188.61 19.4918C188.498 19.2872 188.394 19.051 188.095 19.1017C187.727 19.1635 187.872 19.468 187.866 19.6709C187.845 20.2782 187.833 20.8871 187.866 21.4928C187.892 21.9669 187.693 22.1017 187.275 22.0573C187.07 22.0351 186.859 22.0335 186.656 22.0573C186.218 22.108 186.063 21.9336 186.074 21.4801C186.099 20.4241 186.082 19.3665 186.082 18.3105ZM187.864 16.9881C187.918 17.2909 187.617 17.8491 188.41 17.8063C189.344 17.7555 189.896 17.4701 189.89 16.9104C189.884 16.3697 189.376 16.1223 188.458 16.0653C187.721 16.0177 187.852 16.487 187.862 16.9881H187.864Z" fill="white"/>
<path d="M258.074 46.9864C257.552 46.9864 256.999 46.9769 256.443 46.9896C256.147 46.9959 256.054 46.785 255.942 46.5773C255.596 45.9304 255.255 45.2819 254.902 44.6397C254.759 44.3797 254.678 43.9722 254.261 44.1149C253.93 44.229 254.109 44.5715 254.095 44.8078C254.067 45.2803 254.033 45.7639 254.098 46.2285C254.217 47.0879 253.684 46.9721 253.16 46.9975C252.59 47.0261 252.271 46.969 252.292 46.2237C252.348 44.275 252.331 42.3247 252.3 40.3744C252.291 39.7814 252.41 39.5087 253.06 39.561C254.008 39.6387 254.967 39.5055 255.916 39.6609C256.932 39.8274 257.642 40.422 257.816 41.2624C258.03 42.3025 257.72 43.0668 256.772 43.6598C256.481 43.8422 256.448 43.9579 256.623 44.2449C257.141 45.0916 257.63 45.9574 258.128 46.8168C258.137 46.831 258.114 46.8659 258.075 46.9848L258.074 46.9864ZM254.027 41.8903C254.109 42.2201 253.771 42.7782 254.515 42.775C255.482 42.7703 256.138 42.4484 256.082 41.8887C255.998 41.0499 255.327 41.1371 254.74 41.0642C254.075 40.9817 253.918 41.2925 254.025 41.8919L254.027 41.8903Z" fill="white"/>
<path d="M226.875 34.5314C226.186 34.5314 225.651 34.5187 225.116 34.5361C224.796 34.5456 224.67 34.3474 224.543 34.1032C224.166 33.3834 223.775 32.6714 223.392 31.9532C223.278 31.7375 223.166 31.5314 222.871 31.5964C222.513 31.6757 222.663 31.9722 222.657 32.1767C222.637 32.7824 222.629 33.3913 222.657 33.997C222.676 34.4156 222.517 34.5298 222.122 34.5425C220.915 34.5837 220.917 34.6011 220.917 33.3517C220.917 31.4775 220.934 29.6033 220.906 27.7307C220.898 27.2423 221.031 27.0885 221.511 27.1107C222.438 27.1551 223.372 27.0964 224.298 27.1583C225.412 27.2312 226.153 27.829 226.388 28.7296C226.656 29.7634 226.371 30.5055 225.35 31.1905C225.016 31.4141 225.108 31.5663 225.257 31.812C225.77 32.6635 226.274 33.5197 226.875 34.5314ZM222.682 29.6176C222.719 29.7381 222.344 30.3327 223.153 30.301C224.16 30.2613 224.715 29.9759 224.65 29.3702C224.562 28.5235 223.876 28.6551 223.31 28.5695C222.614 28.4648 222.539 28.8422 222.682 29.6191V29.6176Z" fill="white"/>
<path d="M227.644 30.7926C227.644 29.7635 227.658 28.736 227.638 27.7086C227.63 27.2947 227.706 27.0838 228.181 27.0949C229.47 27.1235 230.762 27.133 232.051 27.0918C232.654 27.0727 232.58 27.4485 232.546 27.8005C232.512 28.1525 232.803 28.7107 232.053 28.679C231.358 28.6488 230.658 28.7027 229.963 28.6647C229.445 28.6361 229.372 28.8962 229.381 29.3322C229.389 29.7381 229.378 30.0505 229.937 30.0093C230.579 29.9601 231.229 30.0315 231.871 29.9887C232.473 29.9474 232.38 30.3423 232.375 30.7038C232.371 31.078 232.507 31.5251 231.851 31.4807C231.235 31.4379 230.61 31.5093 229.994 31.4617C229.335 31.411 229.4 31.8311 229.385 32.2656C229.367 32.7286 229.44 33.014 230.003 32.9807C230.75 32.9363 231.502 33.0061 232.246 32.9601C232.855 32.922 232.772 33.3184 232.741 33.672C232.71 34.0288 232.983 34.5647 232.237 34.5473C230.897 34.5172 229.554 34.5235 228.212 34.5473C227.771 34.5552 227.626 34.4062 227.636 33.9575C227.661 32.903 227.644 31.8486 227.644 30.7942V30.7926Z" fill="white"/>
<path d="M269.63 22.0526C268.931 22.2872 268.56 21.8401 268.392 21.0996C268.301 20.6953 268.062 20.5462 267.662 20.5795C267.328 20.6081 266.987 20.6176 266.655 20.5795C265.819 20.4812 265.2 20.6382 265.059 21.6514C264.98 22.2238 264.477 22.0462 264.119 22.0494C262.969 22.0637 262.968 22.0541 263.397 21.0029C264.192 19.0573 265.025 17.1277 265.766 15.1615C266.045 14.4226 266.563 14.6811 267.033 14.6256C267.479 14.5717 267.783 14.6541 267.981 15.1663C268.749 17.1514 269.57 19.1144 270.372 21.0838C270.635 21.7317 270.388 22.0552 269.629 22.0541L269.63 22.0526ZM266.854 16.7138C266.643 17.2799 266.495 17.6604 266.359 18.0426C265.96 19.1509 265.96 19.1319 267.145 19.0954C267.587 19.0811 267.682 18.9638 267.51 18.5452C267.293 18.0172 267.122 17.4701 266.855 16.7138H266.854Z" fill="white"/>
<path d="M235.355 22.0527C234.702 22.281 234.319 21.8831 234.158 21.1648C234.052 20.6939 233.778 20.5274 233.318 20.5781C233.013 20.6114 232.696 20.6177 232.391 20.5781C231.55 20.4671 230.973 20.6637 230.793 21.6452C230.664 22.3413 230.041 22.0226 229.631 22.04C228.701 22.0781 228.701 22.0511 229.054 21.1886C229.859 19.224 230.715 17.2784 231.445 15.2853C231.733 14.4989 232.248 14.6796 232.785 14.613C233.365 14.5417 233.588 14.8223 233.785 15.3234C234.539 17.2531 235.333 19.1653 236.111 21.0839C236.371 21.7287 236.119 22.0517 235.355 22.0527ZM232.591 16.7267C232.332 17.4243 232.152 17.9904 231.913 18.5311C231.702 19.0084 231.856 19.1352 232.31 19.0908C232.489 19.0734 232.67 19.0765 232.848 19.0908C233.245 19.1193 233.441 19.029 233.252 18.5644C233.028 18.0158 232.848 17.4497 232.591 16.7282V16.7267Z" fill="white"/>
<path d="M156.178 22.0528C157.183 19.5998 158.143 17.2785 159.08 14.9476C159.249 14.5275 159.57 14.5893 159.846 14.64C160.261 14.7146 160.819 14.3261 161.075 14.9429C161.989 17.1469 162.882 19.362 163.785 21.5707C163.914 21.8863 163.881 22.0765 163.484 22.0559C163.2 22.0417 162.913 22.0242 162.634 22.0607C162.144 22.1241 161.83 21.9513 161.745 21.4439C161.618 20.6907 161.166 20.4735 160.476 20.5797C160.223 20.6178 159.957 20.6194 159.704 20.5797C158.961 20.4656 158.457 20.6733 158.329 21.5089C158.263 21.9481 157.987 22.1003 157.552 22.0623C157.144 22.0258 156.73 22.0543 156.178 22.0543V22.0528ZM160.062 16.7156C159.87 17.2404 159.733 17.6067 159.601 17.973C159.315 18.7637 159.582 19.1352 160.403 19.0877C160.454 19.0845 160.506 19.0861 160.557 19.0861C160.78 19.0877 160.892 19.0242 160.794 18.761C160.558 18.13 160.338 17.491 160.062 16.7156Z" fill="white"/>
<path d="M209.421 22.0528C208.813 22.2304 208.422 21.8974 208.278 21.1839C208.186 20.7272 207.93 20.5211 207.454 20.5766C207.124 20.6162 206.778 20.6273 206.45 20.5766C205.61 20.445 205.088 20.7018 204.918 21.6231C204.786 22.3366 204.178 22.0242 203.77 22.0417C202.814 22.0797 202.817 22.0544 203.187 21.1537C203.982 19.2145 204.825 17.2928 205.544 15.325C205.822 14.5639 206.306 14.6686 206.861 14.6115C207.473 14.5497 207.705 14.8398 207.91 15.3662C208.653 17.2706 209.439 19.1574 210.21 21.0507C210.483 21.7208 210.22 22.0554 209.419 22.0544L209.421 22.0528ZM205.839 19.0861C206.277 19.0861 206.63 19.0671 206.981 19.0908C207.429 19.1226 207.524 18.9529 207.361 18.5422C207.142 17.9857 206.95 17.418 206.694 16.7156C206.384 17.5766 206.128 18.2838 205.838 19.0861H205.839Z" fill="white"/>
<path d="M164.277 17.3926C164.277 16.6807 164.312 15.9671 164.266 15.2584C164.23 14.7145 164.441 14.5591 164.925 14.621C165.128 14.6463 165.341 14.6479 165.542 14.621C166.012 14.5607 166.017 14.8493 166.014 15.1997C166.003 16.465 165.992 17.7303 166.017 18.9957C166.037 20.039 166.509 20.5543 167.37 20.5543C168.173 20.5543 168.643 20.0977 168.66 19.2161C168.685 17.9254 168.702 16.6315 168.653 15.3408C168.629 14.7224 168.846 14.4846 169.391 14.6384C169.76 14.7415 170.443 14.2135 170.471 15.0475C170.519 16.5491 170.547 18.0554 170.464 19.5538C170.371 21.2536 169.003 22.3064 167.156 22.2319C165.415 22.1621 164.297 21.0221 164.278 19.289C164.272 18.6563 164.278 18.0237 164.278 17.391L164.277 17.3926Z" fill="white"/>
<path d="M69.3533 35.3606C69.3533 34.3062 69.3704 33.2501 69.3456 32.1957C69.3347 31.7454 69.4154 31.5329 69.9288 31.5472C71.2442 31.5837 72.5627 31.5916 73.8781 31.5456C74.5126 31.5234 74.4366 31.9024 74.4381 32.3035C74.4381 32.7301 74.5203 33.1598 73.8456 33.1185C73.0746 33.071 72.2959 33.1312 71.5234 33.1011C70.9278 33.0789 71.0441 33.4864 71.0224 33.8416C70.9976 34.2348 71.0519 34.4948 71.5467 34.4711C72.268 34.4346 72.9924 34.4901 73.7137 34.4552C74.3931 34.4219 74.2085 34.9087 74.207 35.2607C74.207 35.6079 74.3978 36.1011 73.7153 36.0598C73.0979 36.0234 72.4743 36.0884 71.8585 36.0424C71.2551 35.9964 71.0069 36.1359 70.996 36.8384C70.9836 37.6122 71.3575 37.6122 71.8988 37.59C72.6201 37.5614 73.3476 37.6233 74.0658 37.5725C74.7701 37.5218 74.6181 37.9927 74.6336 38.3939C74.6506 38.8331 74.6972 39.212 74.0317 39.1867C72.6915 39.1359 71.3466 39.1518 70.0048 39.1819C69.5116 39.193 69.3208 39.0662 69.3425 38.5255C69.3828 37.4726 69.3549 36.415 69.3549 35.3606H69.3533Z" fill="white"/>
<path d="M259.087 34.5329C258.665 34.5329 258.376 34.4965 258.1 34.5393C257.34 34.6614 256.867 34.4092 256.729 33.5895C256.658 33.1645 256.392 32.979 255.949 33.0298C255.617 33.0678 255.271 33.0821 254.943 33.0298C254.098 32.8902 253.558 33.1598 253.411 34.0747C253.338 34.525 253.008 34.5329 252.648 34.5377C251.28 34.5567 251.276 34.5631 251.793 33.3009C252.559 31.4283 253.371 29.5747 254.079 27.6799C254.37 26.903 254.916 27.1852 255.404 27.1186C255.871 27.0552 256.132 27.2026 256.326 27.6974C257.2 29.9458 258.127 32.1719 259.088 34.5329H259.087ZM255.983 31.4727C255.738 30.7893 255.488 30.0885 255.179 29.2275C255.012 29.6588 254.906 29.9125 254.812 30.1725C254.437 31.2021 254.79 31.6614 255.871 31.5504C255.891 31.5488 255.908 31.525 255.981 31.4727H255.983Z" fill="white"/>
<path d="M219.186 34.5329C218.573 34.7153 218.18 34.3664 218.038 33.6624C217.935 33.1566 217.651 32.9727 217.155 33.0329C216.849 33.071 216.528 33.0805 216.226 33.0329C215.384 32.8966 214.839 33.1534 214.693 34.0794C214.651 34.3442 214.513 34.5773 214.172 34.5345C213.693 34.4758 213.187 34.6693 212.737 34.4219C212.594 34.3427 212.745 34.1365 212.802 33.9954C213.682 31.8564 214.585 29.7269 215.425 27.5737C215.706 26.8554 216.232 27.1916 216.665 27.1297C217.048 27.0758 217.375 27.0853 217.575 27.6038C218.379 29.6873 219.232 31.7518 220.099 33.8083C220.346 34.3934 220.278 34.6344 219.617 34.5345C219.516 34.5187 219.41 34.5329 219.186 34.5329ZM215.627 31.5837C216.065 31.5837 216.446 31.5647 216.825 31.5885C217.198 31.6122 217.282 31.4568 217.16 31.127C216.944 30.5388 216.728 29.9489 216.457 29.21C216.198 29.914 215.998 30.4516 215.804 30.9907C215.743 31.1588 215.7 31.3332 215.627 31.5837Z" fill="white"/>
<path d="M7.00178 35.348C7.00178 34.265 7.01574 33.1821 6.99402 32.1007C6.98627 31.6964 7.09795 31.5441 7.51522 31.5505C8.85855 31.5743 10.2034 31.5759 11.5452 31.5521C12.2448 31.5394 11.9795 32.05 12.0075 32.3813C12.0385 32.7349 12.1207 33.1424 11.5157 33.1139C10.7417 33.079 9.96455 33.1329 9.1905 33.098C8.61191 33.0727 8.67086 33.4405 8.66465 33.8179C8.65845 34.1858 8.64914 34.4981 9.16879 34.468C9.81253 34.4315 10.464 34.5045 11.1047 34.4474C11.7298 34.3919 11.8973 34.6234 11.8772 35.2386C11.8601 35.7888 11.8275 36.1345 11.1419 36.0631C10.5028 35.9965 9.84976 36.0806 9.20602 36.0409C8.56072 36.0013 8.67241 36.4373 8.6662 36.8211C8.66155 37.2175 8.58709 37.6234 9.21998 37.5901C10.0452 37.5473 10.8751 37.6107 11.7003 37.571C12.4325 37.5362 12.206 38.0562 12.2308 38.4289C12.2588 38.8316 12.3037 39.2042 11.6724 39.182C10.3043 39.136 8.93301 39.1519 7.56486 39.1773C7.12432 39.1852 6.98006 39.0441 6.99092 38.5938C7.01729 37.5124 7.00023 36.4294 7.00023 35.3464L7.00178 35.348Z" fill="white"/>
<path d="M26.3917 34.3254C26.3917 35.012 26.4165 35.6985 26.3855 36.3835C26.3033 38.1768 25.1508 39.2963 23.3886 39.3296C21.4605 39.366 20.204 38.3528 20.1016 36.5357C20.0163 35.0357 20.0877 33.5278 20.0737 32.0247C20.0706 31.6901 20.1839 31.5791 20.5174 31.5506C21.7645 31.4459 21.7645 31.4317 21.7645 32.689C21.7645 33.7974 21.7537 34.9057 21.7676 36.0141C21.78 37.0209 22.3772 37.7313 23.1994 37.7551C24.0479 37.7804 24.6932 37.0511 24.7056 36.0093C24.7195 34.717 24.7474 33.4216 24.6932 32.1309C24.6652 31.4761 25.0313 31.5078 25.416 31.5696C25.7867 31.6299 26.4305 31.2192 26.401 32.1071C26.3762 32.8444 26.3964 33.5849 26.3948 34.3238L26.3917 34.3254Z" fill="white"/>
<path d="M117.918 39.128C118.965 36.6592 119.969 34.2697 120.999 31.8929C121.216 31.3918 122.463 31.3855 122.68 31.8849C123.671 34.1698 124.633 36.4673 125.607 38.7601C125.66 38.8838 125.714 39.0186 125.616 39.1264C125.398 39.369 123.8 39.1105 123.743 38.7934C123.524 37.5567 122.711 37.4108 121.706 37.5408C121.478 37.5709 121.24 37.5598 121.011 37.5408C120.614 37.5107 120.359 37.6026 120.19 38.0466C119.727 39.2628 119.7 39.2517 117.919 39.1264L117.918 39.128ZM121.8 33.8907C121.633 34.284 121.537 34.4869 121.456 34.6978C121.062 35.7158 121.445 36.1381 122.604 35.9647C122.357 35.3305 122.118 34.7105 121.8 33.8907Z" fill="white"/>
<path d="M200.702 46.9863C201.004 46.2411 201.265 45.591 201.531 44.9425C202.198 43.3172 202.895 41.7031 203.519 40.0604C203.748 39.4531 204.172 39.5768 204.587 39.5799C205 39.5831 205.433 39.4388 205.667 40.0461C206.489 42.174 207.35 44.2876 208.233 46.3917C208.468 46.953 208.27 47.0291 207.798 46.9911C207.567 46.9721 207.33 46.9594 207.103 46.9943C206.601 47.0704 206.314 46.8531 206.225 46.3616C206.098 45.656 205.69 45.4134 205.019 45.5292C204.792 45.5672 204.55 45.5656 204.324 45.5292C203.5 45.396 202.926 45.6179 202.793 46.555C202.749 46.8563 202.575 47.0022 202.256 46.9911C201.772 46.9736 201.286 46.9863 200.7 46.9863H200.702ZM204.549 41.6967C204.251 42.5276 203.989 43.257 203.722 43.999C204.901 44.1713 205.3 43.7231 204.919 42.6544C204.815 42.3643 204.697 42.0804 204.549 41.6967Z" fill="white"/>
<path d="M267.883 46.9864C268.875 44.5667 269.824 42.2407 270.783 39.9193C271.042 39.293 271.592 39.6545 272.008 39.5848C272.337 39.5308 272.65 39.5419 272.821 39.9748C273.68 42.1439 274.566 44.3035 275.447 46.4647C275.588 46.812 275.576 47.0213 275.129 46.9896C274.898 46.9737 274.661 46.9578 274.434 46.9927C273.857 47.0815 273.483 46.8881 273.381 46.2744C273.28 45.6672 272.937 45.4452 272.351 45.5292C272.098 45.5657 271.833 45.5625 271.578 45.5292C270.755 45.4261 270.102 45.5577 269.981 46.5757C269.943 46.8833 269.746 47.0054 269.435 46.9911C268.951 46.9705 268.467 46.9864 267.883 46.9864ZM272.599 44.0482C272.309 43.2364 272.058 42.5308 271.747 41.6651C271.431 42.553 271.173 43.2745 270.897 44.0482H272.597H272.599Z" fill="white"/>
<path d="M156.19 46.9879C157.189 44.5476 158.135 42.2469 159.071 39.943C159.316 39.3405 159.815 39.6164 160.209 39.5894C160.537 39.5672 160.911 39.4483 161.111 39.9509C161.979 42.1454 162.879 44.3272 163.774 46.5106C163.909 46.8388 163.862 47.0101 163.476 46.9894C163.245 46.9768 163.008 46.9577 162.781 46.9942C162.169 47.0941 161.789 46.8737 161.674 46.2331C161.573 45.6718 161.26 45.4482 160.697 45.5275C160.368 45.5735 160.02 45.5798 159.693 45.5275C158.934 45.4054 158.461 45.6544 158.331 46.4678C158.266 46.8689 158.036 47.0322 157.624 46.9974C157.191 46.9609 156.752 46.9894 156.193 46.9894L156.19 46.9879ZM160.043 41.6856C159.766 42.5814 159.392 43.2633 159.273 44.0418C160.39 44.1147 160.771 43.6491 160.414 42.6449C160.318 42.3769 160.209 42.1121 160.043 41.6856Z" fill="white"/>
<path d="M91.8734 39.1693C91.2731 39.1693 90.7907 39.1582 90.3083 39.1725C89.8227 39.1867 89.7855 38.7665 89.7126 38.4732C89.5218 37.6915 89.0782 37.395 88.3165 37.5393C88.1661 37.5678 88.0032 37.5662 87.8527 37.5393C86.8863 37.3712 86.2193 37.636 86.0068 38.7285C85.9354 39.0932 84.4153 39.3913 84.1733 39.1217C84.0508 38.9854 84.1438 38.8284 84.2059 38.6825C85.1583 36.4341 86.1014 34.1825 87.0647 31.9405C87.2834 31.4299 88.5337 31.3491 88.7493 31.8422C89.7948 34.2428 90.8077 36.6577 91.8749 39.1693H91.8734ZM87.0368 36.0472C87.4727 36.0472 87.7814 36.0266 88.087 36.052C88.5911 36.0948 88.7493 35.9521 88.5058 35.4399C88.2855 34.9769 88.1273 34.4838 87.8806 33.8416C87.5766 34.636 87.3284 35.2845 87.0368 36.0472Z" fill="white"/>
<path d="M57.5845 39.1709C57.2525 39.1709 57.0416 39.1392 56.8446 39.1757C55.9666 39.3374 55.4268 39.0124 55.253 38.0927C55.1724 37.663 54.9056 37.4886 54.4697 37.5377C54.1889 37.5695 53.8973 37.5774 53.6181 37.5377C52.6408 37.3966 51.9273 37.6202 51.707 38.7523C51.6372 39.1138 50.0705 39.3834 49.8782 39.0916C49.8223 39.0076 49.8487 38.83 49.8937 38.7222C50.8508 36.4468 51.8249 34.1794 52.7711 31.8993C52.9418 31.4886 53.2443 31.541 53.539 31.5679C53.8663 31.5965 54.2727 31.3777 54.4805 31.8692C55.4904 34.2603 56.5095 36.6482 57.5829 39.1709H57.5845ZM53.5933 33.8575C53.3404 34.4965 53.1589 35.0055 52.9402 35.4971C52.7386 35.949 52.8611 36.1075 53.3311 36.0504C53.508 36.0282 53.691 36.0346 53.8694 36.0504C54.2804 36.0822 54.4511 35.9743 54.2479 35.5224C54.0276 35.0309 53.8508 34.5203 53.5933 33.8591V33.8575Z" fill="white"/>
<path d="M108.155 39.171C107.803 39.171 107.593 39.1409 107.393 39.1758C106.551 39.328 106.005 39.041 105.834 38.1435C105.747 37.6853 105.485 37.4823 105.012 37.5378C104.706 37.5743 104.388 37.5807 104.084 37.5378C103.157 37.4078 102.493 37.6219 102.297 38.7001C102.226 39.0917 100.79 39.3962 100.479 39.1298C100.327 38.9998 100.41 38.8428 100.469 38.7033C101.429 36.4311 102.398 34.1637 103.349 31.8867C103.537 31.4364 103.892 31.5633 104.204 31.5664C104.513 31.5696 104.868 31.4285 105.059 31.8836C106.061 34.2762 107.084 36.6594 108.153 39.1694L108.155 39.171ZM103.329 36.0014C103.901 36.0347 104.527 36.263 104.845 35.9094C105.08 35.6462 104.618 35.115 104.486 34.6964C104.412 34.4633 104.305 34.2414 104.153 33.8672C103.849 34.6552 103.6 35.3005 103.329 36.0014Z" fill="white"/>
<path d="M164.945 30.7703C164.945 29.7682 164.964 28.7645 164.937 27.7624C164.925 27.3105 165.009 27.0933 165.522 27.1075C166.786 27.1424 168.054 27.1503 169.316 27.1075C170.035 27.0838 169.836 27.5658 169.864 27.9495C169.897 28.3824 169.88 28.7264 169.279 28.6789C168.637 28.6281 167.987 28.6995 167.345 28.6583C166.808 28.6234 166.638 28.8057 166.636 29.3654C166.634 29.9077 166.819 30.0409 167.308 30.0092C167.899 29.9711 168.497 30.0362 169.088 29.9886C169.625 29.9458 169.751 30.1709 169.718 30.6672C169.69 31.0922 169.794 31.5219 169.119 31.4648C168.479 31.4109 167.827 31.4838 167.185 31.4458C166.529 31.4061 166.67 31.8596 166.656 32.2338C166.642 32.6366 166.585 33.0314 167.213 32.9965C167.985 32.9521 168.764 33.0219 169.535 32.9759C170.219 32.9347 170.03 33.4087 170.038 33.7623C170.045 34.1302 170.184 34.5647 169.521 34.5456C168.179 34.506 166.836 34.5171 165.494 34.544C165.035 34.552 164.928 34.3696 164.937 33.9399C164.962 32.8855 164.945 31.8295 164.945 30.7735V30.7703Z" fill="white"/>
<path d="M178.392 43.2522C178.392 42.2216 178.409 41.1909 178.385 40.1619C178.374 39.7195 178.502 39.5578 178.951 39.5673C180.19 39.5926 181.433 39.6148 182.672 39.5609C183.375 39.5292 183.229 39.9716 183.257 40.3775C183.289 40.8532 183.26 41.1973 182.629 41.1354C182.039 41.0784 181.439 41.1561 180.848 41.1133C180.307 41.0752 180.068 41.1925 180.078 41.8299C180.089 42.4245 180.305 42.5355 180.811 42.5038C181.403 42.4658 182 42.5244 182.593 42.4864C183.22 42.4452 183.069 42.886 183.066 43.2221C183.063 43.5519 183.234 43.9959 182.598 43.9578C181.928 43.9182 181.253 43.98 180.583 43.9388C180.04 43.9055 180.065 44.2464 180.108 44.5921C180.15 44.9219 179.864 45.4515 180.558 45.4404C181.358 45.4277 182.16 45.461 182.961 45.4325C183.625 45.4087 183.463 45.8828 183.466 46.2459C183.469 46.5852 183.609 47.0085 182.989 46.9943C181.619 46.9657 180.249 46.9689 178.879 46.9943C178.433 47.0022 178.38 46.7897 178.386 46.4187C178.402 45.3627 178.392 44.3067 178.392 43.2491V43.2522Z" fill="white"/>
<path d="M163.979 43.3472C164.005 41.7886 164.568 40.5946 165.884 39.8922C167.287 39.1422 168.713 39.1929 170.098 39.9968C170.578 40.2759 170.68 40.5296 170.207 40.991C169.748 41.4397 169.465 41.7236 168.78 41.2669C167.972 40.731 166.866 41.1274 166.324 41.936C165.735 42.8176 165.842 44.2162 166.555 44.9424C167.235 45.6337 168.302 45.7272 169.107 45.1215C169.974 44.4683 170.12 45.4862 170.489 45.7938C170.919 46.1522 170.332 46.3456 170.112 46.4994C168.8 47.4191 167.39 47.4334 166 46.7515C164.605 46.0666 164.021 44.8219 163.979 43.3472Z" fill="white"/>
<path d="M170.956 43.7993C170.956 41.7792 171.541 40.5932 172.848 39.8908C174.252 39.1376 175.681 39.1963 177.066 40.0002C177.556 40.284 177.62 40.5504 177.169 41.0118C176.705 41.4843 176.408 41.7126 175.741 41.2639C174.944 40.7264 173.847 41.118 173.286 41.9394C172.678 42.8273 172.783 44.1782 173.517 44.9314C174.207 45.6386 175.225 45.7163 176.067 45.1296C176.241 45.0075 176.379 44.7015 176.643 44.9552C176.979 45.2755 177.333 45.5926 177.595 45.9732C177.682 46.0984 177.376 46.2982 177.214 46.4171C175.867 47.4097 174.407 47.4636 172.963 46.7549C171.578 46.0762 170.964 44.8347 170.956 43.7993Z" fill="white"/>
<path d="M275.664 43.352C275.705 41.7664 276.283 40.5518 277.637 39.8589C279.05 39.1359 280.471 39.2056 281.846 40.0317C282.303 40.3061 282.368 40.5487 281.934 40.9704C281.466 41.4255 281.169 41.7632 280.443 41.259C279.655 40.712 278.546 41.1369 278.005 41.9567C277.412 42.8541 277.53 44.2162 278.262 44.9471C278.962 45.6448 279.975 45.713 280.809 45.1184C281.216 44.8282 281.782 45.0851 282.23 45.7669C282.53 46.222 282.058 46.3219 281.864 46.4614C280.54 47.4175 279.102 47.4445 277.688 46.7531C276.302 46.0729 275.717 44.8171 275.666 43.352H275.664Z" fill="white"/>
<path d="M241.532 30.7258C241.582 29.2132 242.188 28.0097 243.555 27.3485C244.976 26.6603 246.403 26.7253 247.76 27.599C248.095 27.8147 248.249 28.0271 247.865 28.3775C247.394 28.812 247.104 29.367 246.268 28.7692C245.486 28.2095 244.368 28.6756 243.845 29.5033C243.274 30.4071 243.412 31.8025 244.139 32.5017C244.825 33.1613 245.863 33.201 246.699 32.608C247.516 32.0276 247.651 32.9901 248.036 33.2866C248.474 33.6243 247.938 33.8241 247.743 33.9652C246.421 34.9214 244.999 34.9816 243.569 34.2776C242.14 33.5736 241.552 32.3162 241.527 30.7274L241.532 30.7258Z" fill="white"/>
<path d="M240.432 14.4418C241.254 14.4259 242.011 14.6321 242.703 15.0951C243.069 15.3392 243.241 15.5787 242.798 15.9196C242.635 16.0448 242.492 16.205 242.359 16.3651C242.131 16.6426 241.96 16.7076 241.608 16.4603C240.668 15.8038 239.618 16.0004 238.92 16.8773C238.237 17.7367 238.295 19.1384 239.045 19.9312C239.759 20.6843 240.837 20.7906 241.695 20.077C242.146 19.7013 242.287 20.077 242.498 20.2705C243.333 21.0427 243.303 21.2123 242.295 21.7705C240.899 22.5427 238.946 22.3429 237.789 21.3091C236.591 20.2404 236.166 18.3868 236.757 16.8186C237.32 15.3234 238.692 14.4354 240.432 14.4402V14.4418Z" fill="white"/>
<path d="M203.72 34.7312C202.803 34.6472 202.059 34.4743 201.397 34.0113C201.035 33.7592 200.976 33.5626 201.321 33.2217C201.781 32.7666 202.158 32.1562 202.833 32.9458C202.937 33.0679 203.157 33.1139 203.332 33.1393C203.829 33.2106 204.383 33.2629 204.589 32.6699C204.815 32.023 204.3 31.7947 203.829 31.606C203.446 31.4522 203.044 31.3443 202.665 31.1826C201.832 30.8274 201.333 30.236 201.342 29.2513C201.352 28.2603 201.806 27.5785 202.667 27.2154C203.832 26.7239 204.98 26.8349 206.084 27.4707C206.517 27.7196 206.568 27.9559 206.159 28.2746C206.018 28.384 205.901 28.5346 205.791 28.6789C205.568 28.9739 205.378 29.0642 205.043 28.7725C204.683 28.4601 204.223 28.3364 203.734 28.4871C203.443 28.5759 203.215 28.7265 203.183 29.069C203.152 29.4083 203.325 29.6208 203.616 29.7365C204.001 29.8903 204.39 30.0283 204.777 30.171C206.013 30.6308 206.546 31.3285 206.48 32.4035C206.407 33.5896 205.687 34.3697 204.426 34.6202C204.148 34.6757 203.868 34.7074 203.722 34.7296L203.72 34.7312Z" fill="white"/>
<path d="M186.749 47.1892C185.809 47.1464 185.094 46.9657 184.445 46.5391C184.053 46.2807 183.859 46.0302 184.343 45.6655C184.507 45.5418 184.648 45.3801 184.782 45.2199C185 44.9535 185.163 44.9044 185.46 45.1787C185.891 45.5783 186.429 45.7796 187.034 45.6131C187.321 45.5339 187.557 45.3959 187.6 45.0471C187.641 44.7204 187.532 44.4509 187.251 44.3193C186.809 44.11 186.347 43.9451 185.889 43.7723C184.768 43.3473 184.268 42.6655 184.312 41.6127C184.355 40.5883 185.036 39.8003 186.116 39.5212C187.169 39.2501 188.159 39.4055 189.089 39.9763C189.41 40.1729 189.549 40.3362 189.212 40.6867C188.762 41.156 188.413 41.7379 187.678 41.0672C187.402 40.8151 186.986 40.8817 186.634 40.9958C186.381 41.0783 186.179 41.2353 186.156 41.5524C186.133 41.8584 186.26 42.0709 186.522 42.1819C186.925 42.3531 187.34 42.5022 187.749 42.6592C189.077 43.1634 189.549 43.8325 189.434 45.0439C189.325 46.1808 188.517 46.9577 187.257 47.1306C187.028 47.1623 186.797 47.1829 186.749 47.1892Z" fill="white"/>
<path d="M78.9939 35.3891C78.9939 34.3062 79.011 33.2232 78.9846 32.1402C78.9737 31.7058 79.0823 31.5313 79.5384 31.5488C80.4939 31.5853 81.4525 31.5329 82.4065 31.5789C83.7204 31.6408 84.5115 32.4034 84.5782 33.5895C84.6604 35.0831 84.0384 35.9013 82.6299 36.1407C82.4531 36.1708 82.27 36.1772 82.0901 36.1819C81.149 36.2084 80.6785 36.7147 80.6785 37.701C80.6785 37.8326 80.6785 37.9658 80.6785 38.0974C80.6785 39.1661 80.3388 39.4118 79.2793 39.1756C78.9195 39.0963 79.0001 38.8521 78.9986 38.6365C78.9908 37.5535 78.9955 36.4705 78.9955 35.3876L78.9939 35.3891ZM80.6956 33.8321C80.5901 34.4267 80.6708 34.812 81.4479 34.747C82.3538 34.6724 82.8393 34.4314 82.844 33.859C82.8486 33.2866 82.3398 33.0393 81.3657 32.9727C80.6552 32.9235 80.6025 33.2787 80.694 33.8305L80.6956 33.8321Z" fill="white"/>
<path d="M46.7943 39.3389C45.2602 39.2739 43.9076 38.665 43.2669 37.0255C42.6511 35.4526 42.7582 33.886 43.9246 32.5953C45.088 31.3094 46.5725 31.0731 48.1873 31.552C48.285 31.5805 48.3859 31.6122 48.4774 31.6598C48.8466 31.8501 49.419 32.0705 49.3709 32.432C49.3104 32.8918 48.7085 33.1074 48.3378 33.4246C48.1718 33.5657 48.0586 33.3818 47.9391 33.3009C47.162 32.7792 46.3678 32.7887 45.6263 33.3215C44.739 33.9589 44.556 34.915 44.7499 35.9298C44.9252 36.8495 45.4712 37.4996 46.405 37.7105C46.9975 37.8437 47.5079 37.6423 47.9841 37.2586C48.7085 36.6735 48.9939 37.5408 49.3988 37.8151C49.8657 38.1322 49.3367 38.3907 49.1304 38.5715C48.4991 39.1264 47.7313 39.331 46.7959 39.3389H46.7943Z" fill="white"/>
<path d="M207.576 30.8162C207.576 29.7618 207.594 28.7074 207.569 27.6545C207.559 27.2455 207.677 27.098 208.09 27.1123C209.017 27.1456 209.948 27.0964 210.873 27.1535C212.235 27.2375 212.998 27.978 213.091 29.2116C213.187 30.4817 212.512 31.3332 211.16 31.6344C210.91 31.6899 210.642 31.7708 210.398 31.7311C209.545 31.5932 209.219 31.9262 209.368 32.7919C209.408 33.0218 209.374 33.2644 209.374 33.5023C209.374 34.5329 209.37 34.4758 208.388 34.5488C207.66 34.6027 207.525 34.322 207.562 33.6592C207.615 32.7142 207.576 31.7629 207.576 30.8147V30.8162ZM209.356 29.4066C209.356 29.8601 209.208 30.3707 209.992 30.3041C210.811 30.2343 211.343 29.9442 211.288 29.4035C211.203 28.5663 210.539 28.6455 209.956 28.5679C209.21 28.468 209.356 28.9817 209.356 29.4066Z" fill="white"/>
<path d="M13.5152 35.3766C13.5152 34.2952 13.5338 33.2138 13.5059 32.1324C13.4951 31.6853 13.6331 31.5362 14.0737 31.5505C15.0013 31.5822 15.932 31.533 16.8596 31.5711C18.2727 31.6298 19.0809 32.4321 19.1166 33.7529C19.1553 35.1863 18.3844 36.0124 16.9216 36.1789C16.3524 36.2439 15.5892 35.8713 15.2634 36.3818C15.0013 36.7941 15.1859 37.506 15.1843 38.0864C15.1797 39.209 15.1828 39.1789 14.1 39.1852C13.6036 39.1884 13.4935 39.0029 13.5044 38.5414C13.5307 37.487 13.5121 36.4326 13.5137 35.3766H13.5152ZM15.1781 33.8718C15.0261 34.5457 15.2696 34.7946 15.9754 34.7439C16.8984 34.6773 17.3777 34.4331 17.3839 33.8623C17.3901 33.3058 16.8565 33.0441 15.8963 32.9744C15.1641 32.9205 15.0742 33.2788 15.1781 33.8734V33.8718Z" fill="white"/>
<path d="M237.797 43.2332C237.797 42.2041 237.817 41.1767 237.787 40.1492C237.775 39.6925 237.932 39.5594 238.366 39.5673C239.579 39.5911 240.792 39.6037 242.003 39.5641C242.702 39.5403 242.548 40.0049 242.57 40.4045C242.591 40.8326 242.591 41.183 241.985 41.1339C241.318 41.0815 240.643 41.1402 239.973 41.1164C239.326 41.0942 239.543 41.5794 239.542 41.8886C239.542 42.1994 239.329 42.683 239.976 42.6576C240.569 42.6338 241.167 42.6989 241.755 42.6402C242.384 42.5784 242.342 42.9605 242.321 43.3696C242.303 43.7343 242.469 44.164 241.8 44.1497C241.065 44.1338 240.082 43.7977 239.657 44.2956C239.292 44.7237 239.517 45.7004 239.54 46.433C239.556 46.9055 239.376 47.0038 238.957 46.9927C237.513 46.9546 237.826 47.1195 237.8 45.8415C237.781 44.971 237.797 44.1021 237.797 43.2316V43.2332Z" fill="white"/>
<path d="M268.062 27.1203C267.282 28.3159 266.633 29.383 265.91 30.3946C265.431 31.0653 265.166 31.7535 265.273 32.5859C265.305 32.8444 265.278 33.1123 265.278 33.3755C265.278 34.5521 264.981 34.7804 263.818 34.533C263.607 34.4886 263.489 34.4094 263.484 34.1858C263.484 34.1335 263.472 34.078 263.481 34.0288C263.914 31.8169 262.834 30.1346 261.645 28.4824C261.362 28.0907 261.134 27.6594 260.805 27.1219C261.521 27.1219 262.081 27.1362 262.639 27.1171C262.971 27.106 263.076 27.3375 263.204 27.5659C263.601 28.2715 263.999 28.9771 264.449 29.7746C264.826 29.1182 265.219 28.5585 265.484 27.9417C265.78 27.2535 266.231 27.0188 266.928 27.114C267.23 27.1552 267.544 27.1203 268.063 27.1203H268.062Z" fill="white"/>
<path d="M175.749 27.1044C176.55 27.1044 177.352 27.1314 178.15 27.0965C178.793 27.0679 178.617 27.5246 178.603 27.8449C178.589 28.1779 178.839 28.6853 178.143 28.6837C177.639 28.6837 176.975 28.4347 176.664 28.8058C176.342 29.1943 176.571 29.8697 176.564 30.4183C176.547 31.5267 176.517 32.6382 176.574 33.7434C176.61 34.4268 176.373 34.6472 175.748 34.5425C175.622 34.5219 175.489 34.5251 175.361 34.5425C174.888 34.6059 174.735 34.4093 174.744 33.921C174.77 32.4178 174.725 30.9115 174.767 29.4083C174.784 28.801 174.584 28.5885 174.018 28.6726C173.892 28.6916 173.761 28.6758 173.63 28.6758C172.814 28.6758 172.441 28.0907 172.748 27.3201C172.858 27.0426 173.078 27.1123 173.267 27.1108C174.094 27.1028 174.921 27.1076 175.746 27.1076L175.749 27.1044Z" fill="white"/>
<path d="M174.04 14.6225C174.865 14.6225 175.692 14.651 176.516 14.6129C177.133 14.5844 177.021 15.0062 176.992 15.3471C176.964 15.6769 177.238 16.1875 176.543 16.2017C176.041 16.2128 175.341 15.9385 175.084 16.3413C174.832 16.7345 174.991 17.4068 174.988 17.957C174.98 19.1161 174.966 20.2767 174.995 21.4358C175.008 21.9179 174.865 22.1224 174.384 22.059C174.207 22.0352 174.021 22.0336 173.843 22.059C173.298 22.1383 173.137 21.9131 173.149 21.3581C173.185 19.8566 173.143 18.3534 173.171 16.8502C173.18 16.3476 173.055 16.105 172.534 16.1875C172.408 16.2081 172.276 16.1906 172.147 16.1906C171.035 16.1906 171.052 16.1906 171.113 15.0664C171.131 14.7255 171.226 14.6082 171.561 14.6161C172.386 14.6351 173.211 14.6225 174.037 14.6225H174.04Z" fill="white"/>
<path d="M34.6579 35.3179C34.6579 34.2619 34.675 33.2059 34.6502 32.1498C34.6409 31.7186 34.751 31.5537 35.2071 31.5473C36.3441 31.5315 36.3441 31.5061 36.3441 32.6446C36.3441 34.097 36.358 35.5478 36.3363 37.0002C36.3301 37.4347 36.4356 37.617 36.8932 37.5932C37.5633 37.5568 38.2365 37.6075 38.9066 37.5774C39.5333 37.5504 39.3891 38.0039 39.3704 38.3337C39.3518 38.6651 39.6093 39.1852 38.916 39.1757C37.6502 39.1598 36.3844 39.1598 35.1186 39.1773C34.7184 39.1836 34.6517 38.9902 34.6548 38.6445C34.6673 37.5362 34.6595 36.4278 34.6595 35.3179H34.6579Z" fill="white"/>
<path d="M271.299 18.2725C271.299 17.2688 271.329 16.2651 271.287 15.263C271.264 14.7239 271.454 14.605 271.944 14.6145C273.057 14.6336 273.058 14.6082 273.058 15.7356C273.058 17.0817 273.085 18.4295 273.046 19.7757C273.029 20.3465 273.223 20.5225 273.753 20.4734C274.189 20.4337 274.637 20.5114 275.069 20.4543C275.739 20.3671 275.872 20.6494 275.874 21.2884C275.874 21.9274 275.683 22.0939 275.083 22.0669C274 22.0193 272.912 22.0384 271.828 22.0606C271.426 22.0685 271.284 21.9369 271.291 21.5199C271.313 20.4385 271.299 19.3555 271.299 18.2725Z" fill="white"/>
<path d="M91.6129 48.0123C91.6129 46.9356 91.616 45.8574 91.6113 44.7808C91.6098 44.47 91.5989 44.202 92.0364 44.2131C92.4614 44.2242 92.3807 44.516 92.3807 44.7665C92.3838 46.1143 92.39 47.4605 92.3745 48.8082C92.3714 49.0366 92.5405 49.3949 92.1558 49.4631C91.8083 49.5249 91.4655 49.5424 91.2158 49.1317C90.6698 48.2374 90.0757 47.3717 89.4862 46.5044C89.3047 46.238 89.1605 45.7179 88.858 45.813C88.4578 45.9399 88.6858 46.4584 88.6703 46.8009C88.6377 47.5128 88.6641 48.2263 88.6579 48.9398C88.6563 49.1904 88.7292 49.4805 88.3058 49.4869C87.859 49.4948 87.89 49.2046 87.89 48.9066C87.89 47.6127 87.8776 46.3173 87.9009 45.0234C87.9055 44.7538 87.6853 44.3337 88.1568 44.2353C88.5772 44.1481 88.934 44.2242 89.2039 44.6714C89.7995 45.6592 90.4526 46.6122 91.087 47.5762C91.1972 47.7443 91.3259 47.8997 91.4454 48.0614C91.5012 48.0456 91.557 48.0297 91.6144 48.0139L91.6129 48.0123Z" fill="white"/>
<path d="M226.496 43.325C226.496 42.2722 226.512 41.2193 226.488 40.1665C226.479 39.7447 226.568 39.5116 227.035 39.5655C227.289 39.5941 227.549 39.5862 227.807 39.5655C228.168 39.5386 228.31 39.6813 228.308 40.0618C228.297 42.2199 228.299 44.3779 228.308 46.5359C228.308 46.8673 228.204 47.0258 227.866 47.0036C227.635 46.9878 227.399 46.9735 227.171 47.0068C226.636 47.0829 226.459 46.8847 226.484 46.3218C226.53 45.3245 226.496 44.3224 226.496 43.3219V43.325Z" fill="white"/>
<path d="M283.11 43.3141C283.11 42.2613 283.127 41.2084 283.102 40.1556C283.091 39.7211 283.203 39.5134 283.659 39.5641C283.913 39.5927 284.174 39.5848 284.432 39.5657C284.802 39.5388 284.925 39.7005 284.923 40.0715C284.912 42.2026 284.909 44.3352 284.926 46.4679C284.929 46.8817 284.796 47.045 284.394 47.007C284.165 46.9848 283.927 46.9769 283.699 47.007C283.217 47.072 283.084 46.8786 283.101 46.3918C283.138 45.3675 283.111 44.34 283.111 43.3125L283.11 43.3141Z" fill="white"/>
<path d="M192.842 18.3042C192.842 17.2783 192.87 16.2508 192.831 15.2249C192.812 14.727 192.969 14.6097 193.437 14.6129C194.681 14.6208 194.681 14.597 194.681 15.8369C194.681 17.6794 194.661 19.5219 194.694 21.3644C194.705 21.9273 194.531 22.1397 193.997 22.0557C193.921 22.043 193.841 22.043 193.766 22.0557C193.053 22.1826 192.756 21.9495 192.823 21.1456C192.902 20.2053 192.842 19.2523 192.842 18.3042Z" fill="white"/>
<path d="M245.737 18.3471C245.737 19.3746 245.717 20.402 245.747 21.4279C245.759 21.8893 245.658 22.1288 245.156 22.0606C244.903 22.0257 244.641 22.04 244.383 22.0574C244.05 22.0796 243.927 21.9337 243.927 21.5976C243.935 19.411 243.933 17.2261 243.927 15.0395C243.927 14.743 244.031 14.6431 244.33 14.6114C245.736 14.4655 245.736 14.4528 245.736 15.8957C245.736 16.7123 245.736 17.5289 245.736 18.3455L245.737 18.3471Z" fill="white"/>
<path d="M40.2189 35.31C40.2189 34.281 40.2406 33.2519 40.2096 32.2244C40.1941 31.7361 40.298 31.5252 40.8347 31.5458C42.1315 31.5981 41.8926 31.4586 41.9004 32.6446C41.9128 34.5965 41.8647 36.5484 41.9206 38.4987C41.9454 39.3708 41.4118 39.125 40.965 39.1742C40.4376 39.2313 40.1646 39.1266 40.2018 38.4733C40.2608 37.4221 40.2174 36.3645 40.2174 35.31H40.2189Z" fill="white"/>
<path d="M51.178 45.5989C51.178 46.6676 51.1857 47.7363 51.1733 48.8034C51.1702 49.0841 51.316 49.4964 50.7871 49.4757C50.2472 49.4535 50.4644 49.0223 50.4598 48.7654C50.4365 47.4747 50.4396 46.1824 50.4582 44.8917C50.4613 44.6666 50.2783 44.3051 50.6661 44.2401C51.0058 44.183 51.3594 44.1275 51.6169 44.5397C52.2948 45.6275 53.0146 46.6882 53.7188 47.7585C53.8165 47.906 53.9267 48.0455 54.1702 48.3785C54.1702 47.0593 54.1624 45.9462 54.1764 44.8347C54.1795 44.5873 54.0166 44.2163 54.5146 44.2147C54.9753 44.2131 54.8962 44.5381 54.8977 44.8172C54.9008 46.1079 54.9117 47.4002 54.8884 48.6909C54.8837 48.9604 55.0947 49.3695 54.6169 49.4678C54.2043 49.5519 53.9049 49.4202 53.6568 49.0175C53.0254 47.9932 52.3382 47.0054 51.6712 46.0048C51.5704 45.8542 51.4572 45.7147 51.3486 45.5688C51.2912 45.5783 51.2338 45.5894 51.1749 45.5989H51.178Z" fill="white"/>
<path d="M250.723 30.7908C250.723 31.8183 250.696 32.8458 250.734 33.8717C250.752 34.3902 250.597 34.5598 250.085 34.544C248.714 34.5012 248.978 34.6391 248.968 33.4198C248.953 31.5234 248.981 29.627 248.954 27.7322C248.948 27.2438 249.088 27.0964 249.564 27.1122C250.997 27.1582 250.695 26.9822 250.721 28.2634C250.738 29.1053 250.724 29.9489 250.724 30.7908H250.723Z" fill="white"/>
<path d="M64.8642 45.3041C64.8642 46.6487 64.8688 47.7554 64.8611 48.8638C64.8595 49.1317 64.9635 49.479 64.495 49.4806C64.0281 49.4806 64.1243 49.1381 64.1243 48.8669C64.1181 47.5731 64.1088 46.2808 64.132 44.9869C64.1367 44.7253 63.9086 44.3067 64.4143 44.2274C64.8192 44.164 65.1341 44.2401 65.3869 44.6603C65.981 45.6481 66.6387 46.5948 67.2747 47.5572C67.4143 47.7681 67.5648 47.9711 67.8456 48.3706C67.8456 47.0641 67.8394 45.9732 67.8502 44.8839C67.8533 44.6016 67.706 44.2068 68.2396 44.2195C68.7189 44.2322 68.5839 44.589 68.5855 44.8474C68.5948 46.1666 68.5963 47.4859 68.5824 48.8067C68.5793 49.0398 68.7282 49.3902 68.3512 49.4615C67.9976 49.5265 67.6641 49.5202 67.4128 49.1206C66.7163 48.0107 65.9764 46.9309 65.252 45.84C65.1713 45.7179 65.0798 45.6006 64.8673 45.3041H64.8642Z" fill="white"/>
<path d="M37.8487 46.6931C38.5607 47.0673 38.8151 47.6017 38.6833 48.3072C38.553 49.0081 38.0349 49.3252 37.419 49.4077C36.7831 49.4933 36.1316 49.4552 35.4878 49.479C35.1574 49.4917 35.1155 49.2872 35.1155 49.0192C35.1186 47.5668 35.1264 46.1143 35.1109 44.6619C35.1078 44.3004 35.2676 44.21 35.5778 44.2164C36.0168 44.2275 36.4558 44.2148 36.8963 44.2195C37.5462 44.2275 38.1543 44.348 38.4242 45.0552C38.6755 45.7116 38.4165 46.2317 37.8487 46.6931ZM35.9004 47.9108C35.7546 48.553 35.9656 48.8416 36.6435 48.7687C37.2158 48.7068 37.841 48.7782 37.9015 47.9505C37.948 47.3226 37.5664 47.1149 36.6388 47.0499C35.947 47.0023 35.7624 47.2845 35.9004 47.9108ZM36.4961 46.3395C37.0778 46.3617 37.661 46.3506 37.689 45.6402C37.7184 44.914 37.1383 44.9156 36.6031 44.8744C36.0571 44.8316 35.8198 44.9632 35.8648 45.5863C35.9004 46.0795 35.8679 46.5044 36.4961 46.3395Z" fill="white"/>
<path d="M84.3331 44.1038C85.8843 44.1101 87.0166 45.2803 87.0027 46.8643C86.9887 48.4436 85.8346 49.6027 84.285 49.5948C82.7385 49.5868 81.617 48.4135 81.6294 46.8152C81.6418 45.2042 82.7462 44.0974 84.3331 44.1038ZM86.1868 46.8326C86.1837 45.6815 85.3228 44.7571 84.2773 44.7808C83.2504 44.803 82.4251 45.7005 82.4127 46.8088C82.4003 47.9616 83.2318 48.8765 84.2974 48.8796C85.391 48.8828 86.1899 48.0171 86.1868 46.8326Z" fill="white"/>
<path d="M58.5493 44.1038C60.1051 44.1133 61.2127 45.2771 61.191 46.8802C61.1692 48.4689 60.0245 49.6138 58.4748 49.5963C56.9143 49.5789 55.8332 48.4293 55.8456 46.8056C55.858 45.1994 56.964 44.0942 58.5508 44.1053L58.5493 44.1038ZM56.6413 46.8247C56.6367 48.025 57.4185 48.8812 58.5167 48.8796C59.5917 48.8796 60.4076 47.9853 60.3983 46.8183C60.389 45.6989 59.5777 44.8046 58.5493 44.7808C57.4821 44.757 56.646 45.6513 56.6413 46.8247Z" fill="white"/>
<path d="M27.9707 47.8331C27.9707 49.3204 27.8575 49.4473 26.3978 49.59C24.9335 49.7343 23.7313 48.9811 23.3668 47.692C22.9992 46.3934 23.5173 44.998 24.6186 44.4161C25.4966 43.9515 26.4118 43.9595 27.3037 44.3733C27.51 44.4685 27.9335 44.5208 27.7117 44.9537C27.5271 45.312 27.3006 45.2803 26.9563 45.0868C26.0814 44.5953 25.1367 44.7602 24.5519 45.4309C23.9578 46.1127 23.8911 47.2322 24.3999 48.0075C24.9211 48.8035 26.0023 49.1222 26.8818 48.7448C27.4697 48.4927 27.1409 47.9774 27.1967 47.581C27.2541 47.1672 26.9252 47.229 26.6739 47.2179C26.404 47.2052 26.0705 47.3035 26.1 46.8183C26.1279 46.3744 26.4506 46.5187 26.6755 46.5091C27.9692 46.4584 27.9692 46.4632 27.9692 47.8331H27.9707Z" fill="white"/>
<path d="M28.8689 46.8754C28.858 45.2359 29.9252 44.1085 31.4935 44.1038C33.0772 44.0974 34.191 45.209 34.2049 46.8073C34.2173 48.4024 33.102 49.5789 31.5586 49.5948C29.9888 49.6122 28.8797 48.4896 28.8689 46.8754ZM29.6538 46.8754C29.6662 48.0678 30.4681 48.905 31.5772 48.8781C32.6227 48.8527 33.4076 47.9838 33.4107 46.8469C33.4138 45.6926 32.5591 44.7634 31.5105 44.7808C30.4387 44.7983 29.6413 45.6989 29.6522 46.877L29.6538 46.8754Z" fill="white"/>
<path d="M49.6889 49.3965C49.0731 49.6026 48.707 49.4488 48.4604 48.8922C48.2587 48.4372 47.9702 48.0249 47.7375 47.5841C47.5886 47.3019 47.4056 47.11 47.0674 47.1861C46.7029 47.2686 46.7898 47.5794 46.782 47.8267C46.7696 48.2231 46.7758 48.6195 46.7773 49.0159C46.7773 49.2696 46.7649 49.4853 46.4175 49.4853C46.1134 49.4853 46.0064 49.3568 46.008 49.0603C46.0142 47.5809 46.0142 46.1016 46.008 44.6238C46.0064 44.3051 46.1569 44.2115 46.4376 44.2195C47.0317 44.2337 47.6274 44.2131 48.2199 44.2512C48.8792 44.294 49.3399 44.6396 49.4857 45.3262C49.6269 45.9922 49.4252 46.5757 48.8389 46.8801C48.358 47.1306 48.4123 47.3304 48.6636 47.703C49.025 48.2406 49.3368 48.813 49.6874 49.3996L49.6889 49.3965ZM46.7742 45.6338C46.7525 46.1032 46.6439 46.5582 47.3777 46.5154C48.2758 46.4615 48.783 46.2284 48.7287 45.6893C48.6481 44.8886 48.0105 44.9472 47.4428 44.8759C46.8022 44.795 46.6827 45.1185 46.7742 45.6338Z" fill="white"/>
<path d="M41.6352 46.8198C41.6352 46.1078 41.6492 45.3943 41.629 44.6824C41.6197 44.3367 41.7469 44.2146 42.0758 44.2194C42.9025 44.2321 43.7278 44.2241 44.5545 44.2225C44.8027 44.2225 45.0137 44.2321 45.0122 44.5888C45.0106 44.9535 44.7826 44.9408 44.5437 44.9424C44.1047 44.9424 43.6626 44.9757 43.2283 44.9361C42.6435 44.8822 42.3627 44.9916 42.3674 45.7146C42.3705 46.4107 42.6574 46.4868 43.1911 46.4487C43.5757 46.4202 43.9651 46.4456 44.3529 46.4424C44.6011 46.4408 44.8214 46.4503 44.8136 46.8039C44.8058 47.1845 44.5421 47.1179 44.3203 47.121C43.8301 47.1258 43.3369 47.148 42.8482 47.1163C42.1967 47.0751 42.3875 47.5634 42.4124 47.8694C42.4387 48.1834 42.1068 48.7384 42.8296 48.7257C43.4237 48.7146 44.0178 48.7273 44.6119 48.7225C44.8881 48.7193 45.1347 48.7177 45.1269 49.1157C45.1207 49.4582 44.916 49.4804 44.6616 49.4788C43.81 49.4741 42.9568 49.463 42.1052 49.482C41.7159 49.4915 41.6244 49.3124 41.6321 48.9572C41.6492 48.2452 41.6368 47.5317 41.6368 46.8198H41.6352Z" fill="white"/>
<path d="M92.9964 49.4093C93.7146 47.7475 94.408 46.1619 95.0812 44.5668C95.1929 44.3004 95.3496 44.2227 95.6102 44.2196C95.9111 44.2148 95.9871 44.4083 96.0848 44.6429C96.6789 46.0747 97.2932 47.497 97.8796 48.932C97.9401 49.081 98.2038 49.3395 97.9028 49.4457C97.6732 49.5266 97.2265 49.6249 97.1691 49.2555C96.9721 47.9664 96.043 48.247 95.2239 48.201C94.6174 48.1677 94.1645 48.2645 94.0388 48.9748C93.9364 49.5567 93.53 49.5345 92.9949 49.4109L92.9964 49.4093ZM95.5311 45.2423C95.241 45.9653 95.0114 46.5488 94.7741 47.1292C94.6996 47.3115 94.6112 47.5081 94.9183 47.5097C95.3775 47.5129 95.9452 47.6429 96.2648 47.4177C96.5502 47.2164 96.0988 46.7359 95.9964 46.3728C95.8987 46.0256 95.725 45.7005 95.5326 45.2407L95.5311 45.2423Z" fill="white"/>
<path d="M69.2106 49.3869C69.9148 47.7473 70.5973 46.1633 71.2736 44.5745C71.3776 44.3288 71.5203 44.2162 71.7964 44.2146C72.0942 44.213 72.1935 44.3906 72.2881 44.6189C72.8791 46.046 73.4763 47.4715 74.0642 48.9001C74.1356 49.0745 74.3497 49.3203 74.0704 49.4329C73.8362 49.5264 73.5151 49.5914 73.3367 49.2331C73.1661 48.8922 73.1909 48.3198 72.7938 48.2563C72.1159 48.1469 71.4071 48.2024 70.7137 48.231C70.3833 48.2452 70.3802 48.602 70.3119 48.8303C70.1475 49.3758 69.8605 49.6311 69.2106 49.3869ZM71.7359 45.2405C71.4551 45.935 71.2736 46.4519 71.041 46.9403C70.816 47.4128 70.9634 47.5158 71.4288 47.5269C72.6682 47.5587 72.6682 47.5745 72.2075 46.4043C72.0756 46.0698 71.9376 45.7368 71.7375 45.2389L71.7359 45.2405Z" fill="white"/>
<path d="M77.255 44.1038C77.7405 44.0578 78.2323 44.2037 78.6619 44.5176C78.8217 44.6349 79.1568 44.757 78.8993 45.0504C78.7286 45.2454 78.5611 45.4404 78.1997 45.1772C77.4551 44.6334 76.6888 44.7015 76.0746 45.2359C75.4293 45.7972 75.1888 46.8516 75.5146 47.6936C75.8078 48.4515 76.467 48.8923 77.2628 48.8812C77.6413 48.8765 77.998 48.7702 78.2478 48.4959C78.5425 48.1724 78.7938 48.2295 79.0017 48.5244C79.2638 48.9002 78.862 49.0144 78.6712 49.1508C77.7545 49.804 76.4577 49.739 75.5673 49.0207C74.6909 48.3151 74.3527 47.0308 74.739 45.8765C75.119 44.7412 75.9986 44.1101 77.2566 44.1054L77.255 44.1038Z" fill="white"/>
<path d="M112.192 46.1413C113.922 46.1413 115.652 46.1318 117.381 46.1508C117.631 46.154 118.064 45.9367 118.056 46.5012C118.05 47.0054 117.66 46.8199 117.428 46.8215C113.891 46.8326 110.356 46.831 106.819 46.8247C106.572 46.8247 106.199 46.9721 106.217 46.4695C106.234 45.9685 106.614 46.1508 106.852 46.1492C108.632 46.1349 110.413 46.1413 112.194 46.1413H112.192Z" fill="#002959"/>
<path d="M12.9986 46.1429C14.7561 46.1429 16.5136 46.1382 18.2711 46.1493C18.5146 46.1509 18.8931 45.9875 18.8854 46.4918C18.8776 46.9944 18.4976 46.82 18.2587 46.82C14.7437 46.8295 11.2271 46.8311 7.71216 46.8184C7.47793 46.8184 7.08703 47.0118 7.06221 46.5187C7.03273 45.9542 7.47017 46.154 7.72612 46.1524C9.48361 46.1366 11.2411 46.1445 12.9986 46.1445V46.1429Z" fill="#BC0228"/>
<path d="M99.4541 46.4552C99.4541 47.0355 99.4773 47.6174 99.4463 48.1962C99.423 48.6243 99.589 48.7496 99.983 48.7274C100.447 48.7004 100.912 48.7242 101.376 48.721C101.61 48.721 101.77 48.7718 101.781 49.0651C101.792 49.3775 101.66 49.4853 101.37 49.4821C100.621 49.4726 99.8729 49.4679 99.1237 49.4853C98.7793 49.4932 98.6816 49.3474 98.6831 49.0175C98.694 47.5667 98.6909 46.1159 98.6831 44.665C98.6831 44.3971 98.7048 44.2116 99.0461 44.2131C99.4106 44.2147 99.4634 44.4066 99.4556 44.7142C99.4417 45.2945 99.451 45.8749 99.4525 46.4552H99.4541Z" fill="white"/>
<path d="M40.4206 46.8183C40.4206 47.5556 40.4175 48.2945 40.4221 49.0318C40.4237 49.2966 40.3927 49.4901 40.0529 49.4853C39.7443 49.4805 39.6496 49.3442 39.6496 49.0524C39.6543 47.5762 39.6558 46.1 39.6481 44.6238C39.6465 44.3083 39.7861 44.2195 40.0716 44.2147C40.4221 44.2084 40.4237 44.4272 40.4221 44.6825C40.4175 45.3944 40.4206 46.1064 40.4206 46.8183Z" fill="white"/>
<path d="M79.9463 46.8817C79.9463 46.1459 79.9525 45.4118 79.9432 44.6761C79.9401 44.3954 80.013 44.2384 80.3263 44.2305C80.6459 44.2226 80.7095 44.3796 80.7079 44.6618C80.7002 46.1063 80.7064 47.5492 80.7033 48.9937C80.7033 49.2268 80.7421 49.4709 80.376 49.4805C80.027 49.49 79.9339 49.3314 79.9401 49.0079C79.9525 48.2992 79.9448 47.5904 79.9448 46.8817H79.9463Z" fill="white"/>
<path d="M120.879 30.9858C121.351 29.3828 122.475 29.1877 123.798 29.4811C123.228 30.5545 122.097 31.1507 120.879 30.9858Z" fill="white"/>
<path d="M75.6309 15.1012L75.6883 15.0901C75.6945 17.8332 75.6883 20.5779 75.724 23.321C75.7302 23.8094 75.5192 23.8078 75.1795 23.8062C71.0751 23.7967 66.9707 23.7951 62.8662 23.7903C62.9034 23.7491 62.9391 23.7063 62.9763 23.6651C66.9831 23.6682 70.9882 23.6651 74.9949 23.6873C75.496 23.6904 75.6573 23.5477 75.6511 23.0245C75.6247 20.3829 75.6356 17.7428 75.634 15.1012H75.6309Z" fill="white"/>
<path d="M22.2841 30.9591C22.9511 29.429 23.2722 29.2657 25.208 29.4798C24.4449 30.6959 23.463 31.1922 22.2841 30.9591Z" fill="white"/>
<path d="M291.666 37.6328C290.962 38.4114 290.404 39.3913 289.119 38.9727C289.867 37.4758 290.242 37.2729 291.666 37.6328Z" fill="white"/>
<path d="M50.2955 15.0204C50.1605 14.8365 50.1822 14.6208 50.1822 14.4115C50.1822 11.9586 50.1962 9.50565 50.1698 7.0543C50.1636 6.48189 50.3668 6.35504 50.8849 6.35821C54.8854 6.38041 58.8859 6.37565 62.8849 6.38041C62.8802 9.26305 62.8756 12.1473 62.8709 15.0299C58.6796 15.0267 54.4868 15.0236 50.2955 15.0204ZM55.2422 12.7213C56.0814 11.7636 56.8958 11.827 57.8218 12.6261C56.9904 11.4116 57.7101 10.8027 58.5912 10.1875C57.3177 10.4967 56.7112 9.97657 56.5266 8.69223C56.3528 9.99243 55.6982 10.4871 54.4495 10.2303C55.5509 10.8058 55.9123 11.5432 55.2422 12.7228V12.7213Z" fill="#FEFEFE"/>
<path d="M75.6309 15.1013C75.6325 17.7429 75.6216 20.383 75.648 23.0246C75.6527 23.5494 75.4929 23.6906 74.9919 23.6874C70.9867 23.6652 66.98 23.67 62.9733 23.6652C62.9609 20.8079 62.9484 17.9522 62.936 15.095C67.1677 15.0966 71.3993 15.0981 75.6309 15.0997V15.1013ZM71.4179 18.902C69.9691 19.3761 69.5658 18.5167 69.2835 17.3735C69.2044 18.753 68.4955 19.1747 67.2204 18.9512C68.3807 19.476 68.6615 20.2577 68.0875 21.4311C68.9996 20.3624 69.7907 20.6224 70.6299 21.4628C70.0219 20.3259 70.1863 19.503 71.4195 18.902H71.4179Z" fill="#FEFEFE"/>
<path d="M55.2421 12.7213C55.9122 11.5432 55.5508 10.8043 54.4495 10.2287C55.6982 10.4872 56.3528 9.99246 56.5265 8.69067C56.7111 9.97502 57.3176 10.4951 58.5911 10.1859C57.7101 10.7995 56.9903 11.41 57.8217 12.6246C56.8957 11.827 56.0813 11.7636 55.2421 12.7197V12.7213Z" fill="#002959"/>
<path d="M71.4179 18.9021C70.1863 19.503 70.0219 20.3275 70.6284 21.4628C69.7892 20.6209 68.9981 20.3608 68.086 21.4311C68.6599 20.2578 68.3807 19.4761 67.2189 18.9512C68.4939 19.1748 69.2028 18.753 69.2819 17.3735C69.5658 18.5168 69.9691 19.3762 71.4164 18.9021H71.4179Z" fill="#BC0228"/>
</g>
<defs>
<clipPath id="clip0_265_7240">
<rect width="301.518" height="55.8848" fill="white" transform="translate(0.0943604)"/>
</clipPath>
</defs>
</svg>
